<svg width="13" height="19" viewBox="0 0 13 19" fill="none" xmlns="http://www.w3.org/2000/svg">
<path fill-rule="evenodd" clip-rule="evenodd" d="M6.44761 6.57744C6.11437 6.61616 5.86023 6.88679 5.83661 7.22809C5.82642 7.37514 5.82962 7.38512 6.16294 8.24287C6.92131 10.1944 7.10503 10.6641 7.13593 10.7302C7.21079 10.8903 7.31606 11.0409 7.44758 11.176C7.5485 11.2798 7.61506 11.3355 7.72764 11.4107C7.92549 11.5429 8.02368 11.5794 8.79357 11.8074C9.54352 12.0294 9.95325 12.177 10.3063 12.3523C10.7637 12.5793 11.0828 12.8375 11.2847 13.1439C11.4295 13.3638 11.5578 13.758 11.6136 14.1549C11.6354 14.31 11.6356 14.6529 11.6139 14.7931C11.5668 15.0975 11.4727 15.3526 11.3289 15.566C11.2523 15.6795 11.279 15.6605 11.3902 15.5222C11.7051 15.1307 12.0258 14.4617 12.1894 13.855C12.3875 13.1207 12.4144 12.3323 12.267 11.586C11.9798 10.1328 11.0624 8.87861 9.77026 8.17293C9.68908 8.12858 9.37985 7.9665 8.96063 7.74853C8.89701 7.71544 8.81027 7.67016 8.76786 7.64789C8.72545 7.62561 8.63871 7.58032 8.57509 7.54725C8.51148 7.51418 8.32835 7.41877 8.16814 7.33524C8.00793 7.25169 7.82867 7.15822 7.76977 7.12752C7.59022 7.0339 7.46975 6.97101 7.37994 6.924C6.96453 6.70653 6.78869 6.61862 6.73857 6.60336C6.68599 6.58737 6.55242 6.56683 6.51891 6.56959C6.51184 6.57017 6.47976 6.5737 6.44761 6.57744Z" fill="url(#paint0_radial_11_200)"/>
<path d="M7.35244 13.8627C7.32942 13.8763 7.29711 13.896 7.28062 13.9065C7.26411 13.917 7.22749 13.9398 7.19922 13.9571C7.09546 14.0208 6.8195 14.1908 6.58236 14.3372C6.42651 14.4334 6.40338 14.4478 6.2054 14.5706C6.13471 14.6145 6.05953 14.6607 6.03832 14.6734C6.01712 14.686 5.92652 14.7418 5.83699 14.7973C5.74746 14.8529 5.59132 14.9493 5.49001 15.0115C5.3887 15.0738 5.2075 15.1856 5.08735 15.2599C4.96718 15.3343 4.80911 15.4317 4.73608 15.4765C4.66304 15.5213 4.59558 15.5646 4.58615 15.5727C4.57215 15.5847 3.92255 15.9871 3.5966 16.1856C3.34905 16.3364 3.06266 16.4373 2.7695 16.4769C2.63302 16.4954 2.37475 16.4954 2.23866 16.477C1.86963 16.4272 1.52967 16.2896 1.23853 16.0722C1.12432 15.9869 0.909313 15.7721 0.827117 15.6611C0.633416 15.3996 0.508108 15.1191 0.443209 14.8017C0.428276 14.7287 0.414149 14.667 0.411827 14.6646C0.405761 14.6585 0.416718 14.7688 0.436484 14.9131C0.457037 15.0631 0.500834 15.2801 0.548007 15.4657C0.913049 16.9019 1.95179 18.0701 3.358 18.6258C3.76292 18.7858 4.17153 18.8866 4.61613 18.9361C4.78319 18.9548 5.25607 18.9622 5.43042 18.9489C6.23001 18.8884 6.92623 18.653 7.64045 18.2017C7.70406 18.1614 7.82358 18.0861 7.90603 18.0342C7.9885 17.9823 8.09258 17.9163 8.13736 17.8875C8.18212 17.8588 8.23609 17.8248 8.2573 17.8121C8.2785 17.7993 8.32091 17.7727 8.35154 17.7529C8.38218 17.733 8.51325 17.6501 8.64283 17.5686L9.161 17.2413L9.33892 17.1289L9.34533 17.1249L9.36493 17.1125L9.37425 17.1066L9.50524 17.0239L9.95794 16.7379C10.5348 16.3755 10.7068 16.2482 10.9748 15.9857C11.0865 15.8763 11.2549 15.6895 11.2633 15.6658C11.265 15.661 11.2949 15.6148 11.3298 15.5632C11.4716 15.3533 11.5662 15.0963 11.6131 14.7931C11.6348 14.6529 11.6346 14.31 11.6128 14.1549C11.5706 13.8549 11.4748 13.5147 11.3715 13.2981C11.202 12.9429 10.8411 12.6202 10.3225 12.3602C10.1794 12.2885 10.0315 12.2228 10.015 12.2236C10.0072 12.224 9.52464 12.519 8.9427 12.8791C8.36076 13.2392 7.85569 13.5518 7.82036 13.5737C7.78501 13.5957 7.7243 13.6328 7.68542 13.6561L7.35244 13.8627Z" fill="url(#paint1_radial_11_200)"/>
<path d="M0.402883 12.135L0.405376 14.6432L0.437839 14.7888C0.539346 15.2442 0.715219 15.5725 1.02096 15.8774C1.16478 16.0209 1.27475 16.1074 1.43059 16.1996C1.76036 16.3947 2.11528 16.491 2.50403 16.4908C2.9112 16.4906 3.26342 16.3891 3.62638 16.1672C3.68762 16.1298 3.92762 15.982 4.15969 15.8388L4.58164 15.5785V12.6027V9.62694L4.58151 6.90463C4.58142 5.16784 4.57825 4.13639 4.57276 4.05547C4.53815 3.54696 4.32548 3.07948 3.96788 2.72589C3.85813 2.61737 3.76436 2.54489 3.485 2.35265C3.346 2.25699 3.09154 2.08174 2.91955 1.96322C2.74756 1.84469 2.4642 1.64943 2.28985 1.52929C2.1155 1.40917 1.86683 1.23778 1.73725 1.14844C1.46729 0.962308 1.44617 0.949363 1.36456 0.920165C1.25842 0.882194 1.14594 0.868246 1.039 0.879795C0.727315 0.913457 0.477806 1.1385 0.41295 1.44445C0.402858 1.49205 0.400998 2.12554 0.40087 5.56381L0.400724 9.62694H0.400391L0.402883 12.135Z" fill="url(#paint2_linear_11_200)"/>
<defs>
<radialGradient id="paint0_radial_11_200" cx="0" cy="0" r="1" gradientUnits="userSpaceOnUse" gradientTransform="translate(11.9507 13.628) rotate(-130.909) scale(9.34116 6.72138)">
<stop stop-color="#00CACC"/>
<stop offset="1" stop-color="#048FCE"/>
</radialGradient>
<radialGradient id="paint1_radial_11_200" cx="0" cy="0" r="1" gradientUnits="userSpaceOnUse" gradientTransform="translate(1.96879 17.0335) rotate(-23.1954) scale(10.1038 16.8384)">
<stop stop-color="#00BBEC"/>
<stop offset="1" stop-color="#2756A9"/>
</radialGradient>
<linearGradient id="paint2_linear_11_200" x1="2.49102" y1="0.875854" x2="2.49102" y2="16.4908" gradientUnits="userSpaceOnUse">
<stop stop-color="#00BBEC"/>
<stop offset="1" stop-color="#2756A9"/>
</linearGradient>
</defs>
</svg>
