<svg width="18" height="18" viewBox="0 0 18 18" fill="none" xmlns="http://www.w3.org/2000/svg">
<path d="M9.45312 7.52539V10.8426H14.0768C13.8738 11.9094 13.2645 12.8127 12.3507 13.4201L15.139 15.577C16.7635 14.082 17.7008 11.8861 17.7008 9.27751C17.7008 8.67015 17.6461 8.08608 17.5446 7.52548L9.45312 7.52539Z" fill="#4285F4"/>
<path d="M4.64 10.713L4.01114 11.193L1.78516 12.9216C3.19882 15.717 6.09624 17.6482 9.45466 17.6482C11.7743 17.6482 13.719 16.8851 15.1405 15.5769L12.3523 13.42C11.5868 13.9339 10.6105 14.2454 9.45466 14.2454C7.22092 14.2454 5.32306 12.7426 4.64351 10.718L4.64 10.713Z" fill="#34A853"/>
<path d="M1.78483 5.24377C1.19909 6.39618 0.863281 7.6966 0.863281 9.08263C0.863281 10.4687 1.19909 11.7691 1.78483 12.9215C1.78483 12.9292 4.64346 10.71 4.64346 10.71C4.47164 10.1961 4.37008 9.65106 4.37008 9.08254C4.37008 8.51403 4.47164 7.96898 4.64346 7.45506L1.78483 5.24377Z" fill="#FBBC05"/>
<path d="M9.45484 3.92784C10.7201 3.92784 11.8448 4.36389 12.743 5.20488L15.2032 2.75206C13.7114 1.36603 11.7745 0.517212 9.45484 0.517212C6.09642 0.517212 3.19882 2.44056 1.78516 5.24383L4.6437 7.45529C5.32316 5.43069 7.22109 3.92784 9.45484 3.92784Z" fill="#EA4335"/>
</svg>
